<svg width="167" height="80" viewBox="0 0 167 80" fill="none" xmlns="http://www.w3.org/2000/svg">
<rect y="0.542725" width="166.051" height="79.4573" rx="12" fill="#08F970"/>
<path d="M59.5122 55.4454V56.6161H58.3415V55.4454H59.5122ZM59.5122 54.2746V55.4454H58.3415V54.2746H59.5122ZM59.5122 53.1039V54.2746H58.3415V53.1039H59.5122ZM59.5122 51.9332V53.1039H58.3415V51.9332H59.5122ZM59.5122 50.7624V51.9332H58.3415V50.7624H59.5122ZM59.5122 49.5917V50.7624H58.3415V49.5917H59.5122ZM59.5122 48.421V49.5917H58.3415V48.421H59.5122ZM59.5122 47.2502V48.421H58.3415V47.2502H59.5122ZM59.5122 46.0795V47.2502H58.3415V46.0795H59.5122ZM59.5122 44.9088V46.0795H58.3415V44.9088H59.5122ZM59.5122 43.738V44.9088H58.3415V43.738H59.5122ZM59.5122 42.5673V43.738H58.3415V42.5673H59.5122ZM59.5122 41.3966V42.5673H58.3415V41.3966H59.5122ZM59.5122 40.2258V41.3966H58.3415V40.2258H59.5122ZM59.5122 39.0551V40.2258H58.3415V39.0551H59.5122ZM60.6829 39.0551V40.2258H59.5122V39.0551H60.6829ZM60.6829 40.2258V41.3966H59.5122V40.2258H60.6829ZM60.6829 41.3966V42.5673H59.5122V41.3966H60.6829ZM60.6829 42.5673V43.738H59.5122V42.5673H60.6829ZM60.6829 43.738V44.9088H59.5122V43.738H60.6829ZM60.6829 44.9088V46.0795H59.5122V44.9088H60.6829ZM60.6829 46.0795V47.2502H59.5122V46.0795H60.6829ZM61.8537 47.2502V48.421H60.6829V47.2502H61.8537ZM61.8537 48.421V49.5917H60.6829V48.421H61.8537ZM61.8537 49.5917V50.7624H60.6829V49.5917H61.8537ZM61.8537 50.7624V51.9332H60.6829V50.7624H61.8537ZM61.8537 51.9332V53.1039H60.6829V51.9332H61.8537ZM61.8537 53.1039V54.2746H60.6829V53.1039H61.8537ZM61.8537 54.2746V55.4454H60.6829V54.2746H61.8537ZM61.8537 55.4454V56.6161H60.6829V55.4454H61.8537ZM63.0244 55.4454V56.6161H61.8537V55.4454H63.0244ZM64.1951 55.4454V56.6161H63.0244V55.4454H64.1951ZM64.1951 54.2746V55.4454H63.0244V54.2746H64.1951ZM64.1951 53.1039V54.2746H63.0244V53.1039H64.1951ZM64.1951 51.9332V53.1039H63.0244V51.9332H64.1951ZM64.1951 50.7624V51.9332H63.0244V50.7624H64.1951ZM64.1951 49.5917V50.7624H63.0244V49.5917H64.1951ZM64.1951 48.421V49.5917H63.0244V48.421H64.1951ZM64.1951 47.2502V48.421H63.0244V47.2502H64.1951ZM63.0244 47.2502V48.421H61.8537V47.2502H63.0244ZM63.0244 46.0795V47.2502H61.8537V46.0795H63.0244ZM63.0244 48.421V49.5917H61.8537V48.421H63.0244ZM63.0244 49.5917V50.7624H61.8537V49.5917H63.0244ZM63.0244 50.7624V51.9332H61.8537V50.7624H63.0244ZM63.0244 51.9332V53.1039H61.8537V51.9332H63.0244ZM63.0244 53.1039V54.2746H61.8537V53.1039H63.0244ZM63.0244 54.2746V55.4454H61.8537V54.2746H63.0244ZM60.6829 55.4454V56.6161H59.5122V55.4454H60.6829ZM60.6829 54.2746V55.4454H59.5122V54.2746H60.6829ZM60.6829 53.1039V54.2746H59.5122V53.1039H60.6829ZM60.6829 51.9332V53.1039H59.5122V51.9332H60.6829ZM60.6829 50.7624V51.9332H59.5122V50.7624H60.6829ZM60.6829 49.5917V50.7624H59.5122V49.5917H60.6829ZM60.6829 48.421V49.5917H59.5122V48.421H60.6829ZM60.6829 47.2502V48.421H59.5122V47.2502H60.6829ZM59.5122 27.3478V28.5185H58.3415V27.3478H59.5122ZM59.5122 28.5185V29.6893H58.3415V28.5185H59.5122ZM59.5122 29.6893V30.86H58.3415V29.6893H59.5122ZM59.5122 30.86V32.0307H58.3415V30.86H59.5122ZM59.5122 32.0307V33.2015H58.3415V32.0307H59.5122ZM59.5122 33.2015V34.3722H58.3415V33.2015H59.5122ZM59.5122 34.3722V35.5429H58.3415V34.3722H59.5122ZM59.5122 35.5429V36.7137H58.3415V35.5429H59.5122ZM59.5122 36.7137V37.8844H58.3415V36.7137H59.5122ZM59.5122 37.8844V39.0551H58.3415V37.8844H59.5122ZM63.0244 27.3478V28.5185H61.8537V27.3478H63.0244ZM63.0244 28.5185V29.6893H61.8537V28.5185H63.0244ZM63.0244 29.6893V30.86H61.8537V29.6893H63.0244ZM63.0244 30.86V32.0307H61.8537V30.86H63.0244ZM63.0244 32.0307V33.2015H61.8537V32.0307H63.0244ZM63.0244 33.2015V34.3722H61.8537V33.2015H63.0244ZM63.0244 35.5429V36.7137H61.8537V35.5429H63.0244ZM63.0244 36.7137V37.8844H61.8537V36.7137H63.0244ZM63.0244 37.8844V39.0551H61.8537V37.8844H63.0244ZM63.0244 39.0551V40.2258H61.8537V39.0551H63.0244ZM63.0244 40.2258V41.3966H61.8537V40.2258H63.0244ZM63.0244 41.3966V42.5673H61.8537V41.3966H63.0244ZM63.0244 42.5673V43.738H61.8537V42.5673H63.0244ZM64.1951 43.738V44.9088H63.0244V43.738H64.1951ZM64.1951 44.9088V46.0795H63.0244V44.9088H64.1951ZM64.1951 46.0795V47.2502H63.0244V46.0795H64.1951ZM64.1951 42.5673V43.738H63.0244V42.5673H64.1951ZM64.1951 41.3966V42.5673H63.0244V41.3966H64.1951ZM64.1951 40.2258V41.3966H63.0244V40.2258H64.1951ZM64.1951 39.0551V40.2258H63.0244V39.0551H64.1951ZM64.1951 37.8844V39.0551H63.0244V37.8844H64.1951ZM64.1951 36.7137V37.8844H63.0244V36.7137H64.1951ZM64.1951 35.5429V36.7137H63.0244V35.5429H64.1951ZM64.1951 34.3722V35.5429H63.0244V34.3722H64.1951ZM64.1951 33.2015V34.3722H63.0244V33.2015H64.1951ZM64.1951 32.0307V33.2015H63.0244V32.0307H64.1951ZM63.0244 34.3722V35.5429H61.8537V34.3722H63.0244ZM64.1951 30.86V32.0307H63.0244V30.86H64.1951ZM64.1951 29.6893V30.86H63.0244V29.6893H64.1951ZM64.1951 28.5185V29.6893H63.0244V28.5185H64.1951ZM64.1951 27.3478V28.5185H63.0244V27.3478H64.1951ZM61.8537 27.3478V28.5185H60.6829V27.3478H61.8537ZM60.6829 27.3478V28.5185H59.5122V27.3478H60.6829ZM60.6829 28.5185V29.6893H59.5122V28.5185H60.6829ZM61.8537 28.5185V29.6893H60.6829V28.5185H61.8537ZM61.8537 29.6893V30.86H60.6829V29.6893H61.8537ZM61.8537 30.86V32.0307H60.6829V30.86H61.8537ZM61.8537 32.0307V33.2015H60.6829V32.0307H61.8537ZM61.8537 33.2015V34.3722H60.6829V33.2015H61.8537ZM61.8537 34.3722V35.5429H60.6829V34.3722H61.8537ZM61.8537 35.5429V36.7137H60.6829V35.5429H61.8537ZM60.6829 36.7137V37.8844H59.5122V36.7137H60.6829ZM60.6829 37.8844V39.0551H59.5122V37.8844H60.6829ZM60.6829 35.5429V36.7137H59.5122V35.5429H60.6829ZM60.6829 34.3722V35.5429H59.5122V34.3722H60.6829ZM60.6829 33.2015V34.3722H59.5122V33.2015H60.6829ZM60.6829 32.0307V33.2015H59.5122V32.0307H60.6829ZM60.6829 30.86V32.0307H59.5122V30.86H60.6829ZM60.6829 29.6893V30.86H59.5122V29.6893H60.6829ZM61.8537 36.7137V37.8844H60.6829V36.7137H61.8537ZM61.8537 37.8844V39.0551H60.6829V37.8844H61.8537ZM61.8537 39.0551V40.2258H60.6829V39.0551H61.8537ZM61.8537 40.2258V41.3966H60.6829V40.2258H61.8537ZM61.8537 41.3966V42.5673H60.6829V41.3966H61.8537ZM61.8537 42.5673V43.738H60.6829V42.5673H61.8537ZM61.8537 43.738V44.9088H60.6829V43.738H61.8537ZM61.8537 44.9088V46.0795H60.6829V44.9088H61.8537ZM61.8537 46.0795V47.2502H60.6829V46.0795H61.8537ZM63.0244 44.9088V46.0795H61.8537V44.9088H63.0244ZM63.0244 43.738V44.9088H61.8537V43.738H63.0244ZM70.0488 35.5429V36.7137H68.878V35.5429H70.0488ZM70.0488 34.3722V35.5429H68.878V34.3722H70.0488ZM71.2195 34.3722V35.5429H70.0488V34.3722H71.2195ZM72.3902 34.3722V35.5429H71.2195V34.3722H72.3902ZM73.561 34.3722V35.5429H72.3902V34.3722H73.561ZM74.7317 34.3722V35.5429H73.561V34.3722H74.7317ZM74.7317 35.5429V36.7137H73.561V35.5429H74.7317ZM74.7317 36.7137V37.8844H73.561V36.7137H74.7317ZM74.7317 37.8844V39.0551H73.561V37.8844H74.7317ZM74.7317 39.0551V40.2258H73.561V39.0551H74.7317ZM73.561 39.0551V40.2258H72.3902V39.0551H73.561ZM73.561 40.2258V41.3966H72.3902V40.2258H73.561ZM72.3902 40.2258V41.3966H71.2195V40.2258H72.3902ZM72.3902 41.3966V42.5673H71.2195V41.3966H72.3902ZM71.2195 41.3966V42.5673H70.0488V41.3966H71.2195ZM71.2195 42.5673V43.738H70.0488V42.5673H71.2195ZM70.0488 42.5673V43.738H68.878V42.5673H70.0488ZM70.0488 43.738V44.9088H68.878V43.738H70.0488ZM70.0488 44.9088V46.0795H68.878V44.9088H70.0488ZM71.2195 44.9088V46.0795H70.0488V44.9088H71.2195ZM71.2195 46.0795V47.2502H70.0488V46.0795H71.2195ZM72.3902 46.0795V47.2502H71.2195V46.0795H72.3902ZM72.3902 47.2502V48.421H71.2195V47.2502H72.3902ZM73.561 47.2502V48.421H72.3902V47.2502H73.561ZM73.561 48.421V49.5917H72.3902V48.421H73.561ZM74.7317 48.421V49.5917H73.561V48.421H74.7317ZM74.7317 49.5917V50.7624H73.561V49.5917H74.7317ZM74.7317 50.7624V51.9332H73.561V50.7624H74.7317ZM74.7317 51.9332V53.1039H73.561V51.9332H74.7317ZM74.7317 53.1039V54.2746H73.561V53.1039H74.7317ZM74.7317 54.2746V55.4454H73.561V54.2746H74.7317ZM74.7317 55.4454V56.6161H73.561V55.4454H74.7317ZM70.0488 36.7137V37.8844H68.878V36.7137H70.0488ZM70.0488 37.8844V39.0551H68.878V37.8844H70.0488ZM70.0488 39.0551V40.2258H68.878V39.0551H70.0488ZM68.878 39.0551V40.2258H67.7073V39.0551H68.878ZM70.0488 40.2258V41.3966H68.878V40.2258H70.0488ZM68.878 40.2258V41.3966H67.7073V40.2258H68.878ZM68.878 41.3966V42.5673H67.7073V41.3966H68.878ZM67.7073 40.2258V41.3966H66.5366V40.2258H67.7073ZM67.7073 41.3966V42.5673H66.5366V41.3966H67.7073ZM68.878 42.5673V43.738H67.7073V42.5673H68.878ZM70.0488 41.3966V42.5673H68.878V41.3966H70.0488ZM71.2195 40.2258V41.3966H70.0488V40.2258H71.2195ZM72.3902 39.0551V40.2258H71.2195V39.0551H72.3902ZM73.561 37.8844V39.0551H72.3902V37.8844H73.561ZM73.561 36.7137V37.8844H72.3902V36.7137H73.561ZM73.561 35.5429V36.7137H72.3902V35.5429H73.561ZM72.3902 35.5429V36.7137H71.2195V35.5429H72.3902ZM71.2195 36.7137V37.8844H70.0488V36.7137H71.2195ZM71.2195 37.8844V39.0551H70.0488V37.8844H71.2195ZM71.2195 39.0551V40.2258H70.0488V39.0551H71.2195ZM72.3902 37.8844V39.0551H71.2195V37.8844H72.3902ZM72.3902 36.7137V37.8844H71.2195V36.7137H72.3902ZM71.2195 35.5429V36.7137H70.0488V35.5429H71.2195ZM66.5366 41.3966V42.5673H65.3659V41.3966H66.5366ZM65.3659 41.3966V42.5673H64.1951V41.3966H65.3659ZM65.3659 42.5673V43.738H64.1951V42.5673H65.3659ZM65.3659 43.738V44.9088H64.1951V43.738H65.3659ZM65.3659 44.9088V46.0795H64.1951V44.9088H65.3659ZM66.5366 44.9088V46.0795H65.3659V44.9088H66.5366ZM66.5366 46.0795V47.2502H65.3659V46.0795H66.5366ZM65.3659 46.0795V47.2502H64.1951V46.0795H65.3659ZM67.7073 46.0795V47.2502H66.5366V46.0795H67.7073ZM67.7073 47.2502V48.421H66.5366V47.2502H67.7073ZM68.878 47.2502V48.421H67.7073V47.2502H68.878ZM68.878 48.421V49.5917H67.7073V48.421H68.878ZM70.0488 48.421V49.5917H68.878V48.421H70.0488ZM70.0488 49.5917V50.7624H68.878V49.5917H70.0488ZM71.2195 50.7624V51.9332H70.0488V50.7624H71.2195ZM71.2195 51.9332V53.1039H70.0488V51.9332H71.2195ZM71.2195 53.1039V54.2746H70.0488V53.1039H71.2195ZM70.0488 53.1039V54.2746H68.878V53.1039H70.0488ZM70.0488 51.9332V53.1039H68.878V51.9332H70.0488ZM70.0488 50.7624V51.9332H68.878V50.7624H70.0488ZM70.0488 54.2746V55.4454H68.878V54.2746H70.0488ZM70.0488 55.4454V56.6161H68.878V55.4454H70.0488ZM71.2195 55.4454V56.6161H70.0488V55.4454H71.2195ZM72.3902 55.4454V56.6161H71.2195V55.4454H72.3902ZM73.561 55.4454V56.6161H72.3902V55.4454H73.561ZM73.561 54.2746V55.4454H72.3902V54.2746H73.561ZM72.3902 54.2746V55.4454H71.2195V54.2746H72.3902ZM71.2195 54.2746V55.4454H70.0488V54.2746H71.2195ZM72.3902 53.1039V54.2746H71.2195V53.1039H72.3902ZM73.561 53.1039V54.2746H72.3902V53.1039H73.561ZM73.561 51.9332V53.1039H72.3902V51.9332H73.561ZM73.561 50.7624V51.9332H72.3902V50.7624H73.561ZM73.561 49.5917V50.7624H72.3902V49.5917H73.561ZM72.3902 49.5917V50.7624H71.2195V49.5917H72.3902ZM72.3902 50.7624V51.9332H71.2195V50.7624H72.3902ZM72.3902 51.9332V53.1039H71.2195V51.9332H72.3902ZM72.3902 48.421V49.5917H71.2195V48.421H72.3902ZM71.2195 48.421V49.5917H70.0488V48.421H71.2195ZM71.2195 47.2502V48.421H70.0488V47.2502H71.2195ZM70.0488 47.2502V48.421H68.878V47.2502H70.0488ZM70.0488 46.0795V47.2502H68.878V46.0795H70.0488ZM68.878 46.0795V47.2502H67.7073V46.0795H68.878ZM68.878 44.9088V46.0795H67.7073V44.9088H68.878ZM68.878 43.738V44.9088H67.7073V43.738H68.878ZM67.7073 43.738V44.9088H66.5366V43.738H67.7073ZM67.7073 42.5673V43.738H66.5366V42.5673H67.7073ZM66.5366 42.5673V43.738H65.3659V42.5673H66.5366ZM66.5366 43.738V44.9088H65.3659V43.738H66.5366ZM67.7073 44.9088V46.0795H66.5366V44.9088H67.7073ZM71.2195 49.5917V50.7624H70.0488V49.5917H71.2195ZM82.9474 49.5917V48.421H84.1181V49.5917H82.9474ZM81.7767 49.5917V48.421H82.9474V49.5917H81.7767ZM80.6059 49.5917V48.421H81.7767V49.5917H80.6059ZM79.4352 49.5917V48.421H80.6059V49.5917H79.4352ZM78.2645 49.5917V48.421H79.4352V49.5917H78.2645ZM78.2645 50.7624V49.5917H79.4352V50.7624H78.2645ZM78.2645 51.9332V50.7624H79.4352V51.9332H78.2645ZM79.4352 51.9332V50.7624H80.6059V51.9332H79.4352ZM80.6059 51.9332V50.7624H81.7767V51.9332H80.6059ZM81.7767 51.9332V50.7624H82.9474V51.9332H81.7767ZM81.7767 50.7624V49.5917H82.9474V50.7624H81.7767ZM82.9474 50.7624V49.5917H84.1181V50.7624H82.9474ZM80.6059 50.7624V49.5917H81.7767V50.7624H80.6059ZM79.4352 50.7624V49.5917H80.6059V50.7624H79.4352ZM82.9474 51.9332V50.7624H84.1181V51.9332H82.9474ZM84.1181 51.9332V50.7624H85.2889V51.9332H84.1181ZM84.1181 53.1039V51.9332H85.2889V53.1039H84.1181ZM82.9474 53.1039V51.9332H84.1181V53.1039H82.9474ZM81.7767 53.1039V51.9332H82.9474V53.1039H81.7767ZM80.6059 53.1039V51.9332H81.7767V53.1039H80.6059ZM79.4352 53.1039V51.9332H80.6059V53.1039H79.4352ZM79.4352 54.2746V53.1039H80.6059V54.2746H79.4352ZM80.6059 54.2746V53.1039H81.7767V54.2746H80.6059ZM81.7767 54.2746V53.1039H82.9474V54.2746H81.7767ZM82.9474 54.2746V53.1039H84.1181V54.2746H82.9474ZM84.1181 54.2746V53.1039H85.2889V54.2746H84.1181ZM81.7767 55.4454V54.2746H82.9474V55.4454H81.7767ZM80.6059 55.4454V54.2746H81.7767V55.4454H80.6059ZM82.9474 55.4454V54.2746H84.1181V55.4454H82.9474ZM82.9474 56.6161V55.4454H84.1181V56.6161H82.9474ZM84.1181 56.6161V55.4454H85.2889V56.6161H84.1181ZM84.1181 55.4454V54.2746H85.2889V55.4454H84.1181ZM85.2889 55.4454V54.2746H86.4596V55.4454H85.2889ZM85.2889 56.6161V55.4454H86.4596V56.6161H85.2889ZM85.2889 54.2746V53.1039H86.4596V54.2746H85.2889ZM86.4596 54.2746V53.1039H87.6303V54.2746H86.4596ZM86.4596 53.1039V51.9332H87.6303V53.1039H86.4596ZM85.2889 53.1039V51.9332H86.4596V53.1039H85.2889ZM87.6303 53.1039V51.9332H88.8011V53.1039H87.6303ZM87.6303 54.2746V53.1039H88.8011V54.2746H87.6303ZM87.6303 55.4454V54.2746H88.8011V55.4454H87.6303ZM87.6303 56.6161V55.4454H88.8011V56.6161H87.6303ZM86.4596 56.6161V55.4454H87.6303V56.6161H86.4596ZM86.4596 55.4454V54.2746H87.6303V55.4454H86.4596ZM88.8011 56.6161V55.4454H89.9718V56.6161H88.8011ZM91.1425 55.4454V54.2746H92.3133V55.4454H91.1425ZM91.1425 54.2746V53.1039H92.3133V54.2746H91.1425ZM91.1425 53.1039V51.9332H92.3133V53.1039H91.1425ZM89.9718 53.1039V51.9332H91.1425V53.1039H89.9718ZM88.8011 53.1039V51.9332H89.9718V53.1039H88.8011ZM88.8011 54.2746V53.1039H89.9718V54.2746H88.8011ZM88.8011 55.4454V54.2746H89.9718V55.4454H88.8011ZM89.9718 55.4454V54.2746H91.1425V55.4454H89.9718ZM89.9718 54.2746V53.1039H91.1425V54.2746H89.9718ZM92.3133 54.2746V53.1039H93.484V54.2746H92.3133ZM92.3133 55.4454V54.2746H93.484V55.4454H92.3133ZM93.484 55.4454V54.2746H94.6547V55.4454H93.484ZM93.484 54.2746V53.1039H94.6547V54.2746H93.484ZM94.6547 54.2746V53.1039H95.8255V54.2746H94.6547ZM94.6547 53.1039V51.9332H95.8255V53.1039H94.6547ZM94.6547 51.9332V50.7624H95.8255V51.9332H94.6547ZM93.484 51.9332V50.7624H94.6547V51.9332H93.484ZM93.484 53.1039V51.9332H94.6547V53.1039H93.484ZM92.3133 53.1039V51.9332H93.484V53.1039H92.3133ZM92.3133 51.9332V50.7624H93.484V51.9332H92.3133ZM91.1425 51.9332V50.7624H92.3133V51.9332H91.1425ZM95.8255 51.9332V50.7624H96.9962V51.9332H95.8255ZM95.8255 50.7624V49.5917H96.9962V50.7624H95.8255ZM95.8255 49.5917V48.421H96.9962V49.5917H95.8255ZM95.8255 48.421V47.2502H96.9962V48.421H95.8255ZM95.8255 47.2502V46.0795H96.9962V47.2502H95.8255ZM95.8255 46.0795V44.9088H96.9962V46.0795H95.8255ZM95.8255 44.9088V43.738H96.9962V44.9088H95.8255ZM95.8255 43.738V42.5673H96.9962V43.738H95.8255ZM95.8255 42.5673V41.3966H96.9962V42.5673H95.8255ZM95.8255 41.3966V40.2258H96.9962V41.3966H95.8255ZM94.6547 41.3966V40.2258H95.8255V41.3966H94.6547ZM94.6547 40.2258V39.0551H95.8255V40.2258H94.6547ZM95.8255 40.2258V39.0551H96.9962V40.2258H95.8255ZM93.484 40.2258V39.0551H94.6547V40.2258H93.484ZM92.3133 40.2258V39.0551H93.484V40.2258H92.3133ZM91.1425 40.2258V39.0551H92.3133V40.2258H91.1425ZM89.9718 40.2258V39.0551H91.1425V40.2258H89.9718ZM91.1425 41.3966V40.2258H92.3133V41.3966H91.1425ZM91.1425 42.5673V41.3966H92.3133V42.5673H91.1425ZM91.1425 43.738V42.5673H92.3133V43.738H91.1425ZM91.1425 44.9088V43.738H92.3133V44.9088H91.1425ZM91.1425 46.0795V44.9088H92.3133V46.0795H91.1425ZM91.1425 47.2502V46.0795H92.3133V47.2502H91.1425ZM91.1425 48.421V47.2502H92.3133V48.421H91.1425ZM91.1425 49.5917V48.421H92.3133V49.5917H91.1425ZM91.1425 50.7624V49.5917H92.3133V50.7624H91.1425ZM92.3133 50.7624V49.5917H93.484V50.7624H92.3133ZM93.484 50.7624V49.5917H94.6547V50.7624H93.484ZM94.6547 50.7624V49.5917H95.8255V50.7624H94.6547ZM94.6547 49.5917V48.421H95.8255V49.5917H94.6547ZM94.6547 48.421V47.2502H95.8255V48.421H94.6547ZM94.6547 47.2502V46.0795H95.8255V47.2502H94.6547ZM94.6547 46.0795V44.9088H95.8255V46.0795H94.6547ZM94.6547 44.9088V43.738H95.8255V44.9088H94.6547ZM94.6547 43.738V42.5673H95.8255V43.738H94.6547ZM94.6547 42.5673V41.3966H95.8255V42.5673H94.6547ZM93.484 41.3966V40.2258H94.6547V41.3966H93.484ZM92.3133 41.3966V40.2258H93.484V41.3966H92.3133ZM92.3133 42.5673V41.3966H93.484V42.5673H92.3133ZM92.3133 43.738V42.5673H93.484V43.738H92.3133ZM92.3133 44.9088V43.738H93.484V44.9088H92.3133ZM92.3133 46.0795V44.9088H93.484V46.0795H92.3133ZM93.484 46.0795V44.9088H94.6547V46.0795H93.484ZM93.484 47.2502V46.0795H94.6547V47.2502H93.484ZM93.484 48.421V47.2502H94.6547V48.421H93.484ZM93.484 49.5917V48.421H94.6547V49.5917H93.484ZM92.3133 49.5917V48.421H93.484V49.5917H92.3133ZM92.3133 48.421V47.2502H93.484V48.421H92.3133ZM92.3133 47.2502V46.0795H93.484V47.2502H92.3133ZM93.484 43.738V42.5673H94.6547V43.738H93.484ZM93.484 42.5673V41.3966H94.6547V42.5673H93.484ZM93.484 44.9088V43.738H94.6547V44.9088H93.484ZM82.9474 41.3966V40.2258H84.1181V41.3966H82.9474ZM81.7767 41.3966V40.2258H82.9474V41.3966H81.7767ZM80.6059 41.3966V40.2258H81.7767V41.3966H80.6059ZM79.4352 41.3966V40.2258H80.6059V41.3966H79.4352ZM78.2645 41.3966V40.2258H79.4352V41.3966H78.2645ZM78.2645 40.2258V39.0551H79.4352V40.2258H78.2645ZM79.4352 40.2258V39.0551H80.6059V40.2258H79.4352ZM80.6059 40.2258V39.0551H81.7767V40.2258H80.6059ZM81.7767 40.2258V39.0551H82.9474V40.2258H81.7767ZM82.9474 40.2258V39.0551H84.1181V40.2258H82.9474ZM84.1181 40.2258V39.0551H85.2889V40.2258H84.1181ZM84.1181 39.0551V37.8844H85.2889V39.0551H84.1181ZM82.9474 39.0551V37.8844H84.1181V39.0551H82.9474ZM81.7767 39.0551V37.8844H82.9474V39.0551H81.7767ZM80.6059 39.0551V37.8844H81.7767V39.0551H80.6059ZM80.6059 37.8844V36.7137H81.7767V37.8844H80.6059ZM79.4352 37.8844V36.7137H80.6059V37.8844H79.4352ZM79.4352 39.0551V37.8844H80.6059V39.0551H79.4352ZM80.6059 36.7137V35.5429H81.7767V36.7137H80.6059ZM81.7767 36.7137V35.5429H82.9474V36.7137H81.7767ZM81.7767 37.8844V36.7137H82.9474V37.8844H81.7767ZM82.9474 37.8844V36.7137H84.1181V37.8844H82.9474ZM82.9474 36.7137V35.5429H84.1181V36.7137H82.9474ZM82.9474 35.5429V34.3722H84.1181V35.5429H82.9474ZM84.1181 35.5429V34.3722H85.2889V35.5429H84.1181ZM85.2889 35.5429V34.3722H86.4596V35.5429H85.2889ZM86.4596 35.5429V34.3722H87.6303V35.5429H86.4596ZM87.6303 35.5429V34.3722H88.8011V35.5429H87.6303ZM88.8011 35.5429V34.3722H89.9718V35.5429H88.8011ZM89.9718 35.5429V34.3722H91.1425V35.5429H89.9718ZM91.1425 35.5429V34.3722H92.3133V35.5429H91.1425ZM89.9718 36.7137V35.5429H91.1425V36.7137H89.9718ZM88.8011 36.7137V35.5429H89.9718V36.7137H88.8011ZM87.6303 36.7137V35.5429H88.8011V36.7137H87.6303ZM86.4596 36.7137V35.5429H87.6303V36.7137H86.4596ZM85.2889 36.7137V35.5429H86.4596V36.7137H85.2889ZM84.1181 36.7137V35.5429H85.2889V36.7137H84.1181ZM84.1181 37.8844V36.7137H85.2889V37.8844H84.1181ZM85.2889 37.8844V36.7137H86.4596V37.8844H85.2889ZM86.4596 37.8844V36.7137H87.6303V37.8844H86.4596ZM87.6303 37.8844V36.7137H88.8011V37.8844H87.6303ZM88.8011 37.8844V36.7137H89.9718V37.8844H88.8011ZM89.9718 37.8844V36.7137H91.1425V37.8844H89.9718ZM91.1425 36.7137V35.5429H92.3133V36.7137H91.1425ZM92.3133 36.7137V35.5429H93.484V36.7137H92.3133ZM93.484 36.7137V35.5429H94.6547V36.7137H93.484ZM93.484 37.8844V36.7137H94.6547V37.8844H93.484ZM94.6547 37.8844V36.7137H95.8255V37.8844H94.6547ZM94.6547 39.0551V37.8844H95.8255V39.0551H94.6547ZM93.484 39.0551V37.8844H94.6547V39.0551H93.484ZM92.3133 39.0551V37.8844H93.484V39.0551H92.3133ZM91.1425 39.0551V37.8844H92.3133V39.0551H91.1425ZM89.9718 39.0551V37.8844H91.1425V39.0551H89.9718ZM88.8011 39.0551V37.8844H89.9718V39.0551H88.8011ZM87.6303 39.0551V37.8844H88.8011V39.0551H87.6303ZM86.4596 39.0551V37.8844H87.6303V39.0551H86.4596ZM85.2889 39.0551V37.8844H86.4596V39.0551H85.2889ZM91.1425 37.8844V36.7137H92.3133V37.8844H91.1425ZM92.3133 37.8844V36.7137H93.484V37.8844H92.3133ZM79.4352 48.421V47.2502H80.6059V48.421H79.4352ZM80.6059 48.421V47.2502H81.7767V48.421H80.6059ZM81.7767 48.421V47.2502H82.9474V48.421H81.7767ZM82.9474 48.421V47.2502H84.1181V48.421H82.9474ZM80.6059 47.2502V46.0795H81.7767V47.2502H80.6059ZM81.7767 47.2502V46.0795H82.9474V47.2502H81.7767ZM84.1181 47.2502V46.0795H85.2889V47.2502H84.1181ZM85.2889 47.2502V46.0795H86.4596V47.2502H85.2889ZM86.4596 47.2502V46.0795H87.6303V47.2502H86.4596ZM87.6303 47.2502V46.0795H88.8011V47.2502H87.6303ZM88.8011 47.2502V46.0795H89.9718V47.2502H88.8011ZM89.9718 47.2502V46.0795H91.1425V47.2502H89.9718ZM82.9474 47.2502V46.0795H84.1181V47.2502H82.9474ZM79.4352 47.2502V46.0795H80.6059V47.2502H79.4352ZM80.6059 46.0795V44.9088H81.7767V46.0795H80.6059ZM81.7767 46.0795V44.9088H82.9474V46.0795H81.7767ZM82.9474 46.0795V44.9088H84.1181V46.0795H82.9474ZM84.1181 46.0795V44.9088H85.2889V46.0795H84.1181ZM85.2889 46.0795V44.9088H86.4596V46.0795H85.2889ZM86.4596 46.0795V44.9088H87.6303V46.0795H86.4596ZM87.6303 46.0795V44.9088H88.8011V46.0795H87.6303ZM88.8011 46.0795V44.9088H89.9718V46.0795H88.8011ZM89.9718 46.0795V44.9088H91.1425V46.0795H89.9718ZM89.9718 44.9088V43.738H91.1425V44.9088H89.9718ZM88.8011 44.9088V43.738H89.9718V44.9088H88.8011ZM87.6303 44.9088V43.738H88.8011V44.9088H87.6303ZM85.2889 44.9088V43.738H86.4596V44.9088H85.2889ZM84.1181 44.9088V43.738H85.2889V44.9088H84.1181ZM82.9474 44.9088V43.738H84.1181V44.9088H82.9474ZM86.4596 44.9088V43.738H87.6303V44.9088H86.4596ZM96.9962 51.9332V53.1039H95.8255V51.9332H96.9962ZM96.9962 53.1039V54.2746H95.8255V53.1039H96.9962ZM96.9962 54.2746V55.4454H95.8255V54.2746H96.9962ZM96.9962 55.4454V56.6161H95.8255V55.4454H96.9962ZM95.8255 55.4454V56.6161H94.6547V55.4454H95.8255ZM95.8255 54.2746V55.4454H94.6547V54.2746H95.8255ZM94.6547 55.4454V56.6161H93.484V55.4454H94.6547ZM93.484 55.4454V56.6161H92.3133V55.4454H93.484ZM92.3133 55.4454V56.6161H91.1425V55.4454H92.3133ZM91.1425 50.7624V51.9332H89.9718V50.7624H91.1425ZM82.9474 55.4454V56.6161H81.7767V55.4454H82.9474ZM85.2889 47.2502V48.421H84.1181V47.2502H85.2889ZM102.872 27.3478V28.5185H101.701V27.3478H102.872ZM102.872 28.5185V29.6893H101.701V28.5185H102.872ZM102.872 29.6893V30.86H101.701V29.6893H102.872ZM106.384 27.3478V28.5185H105.213V27.3478H106.384ZM106.384 28.5185V29.6893H105.213V28.5185H106.384ZM106.384 29.6893V30.86H105.213V29.6893H106.384ZM107.554 29.6893V30.86H106.384V29.6893H107.554ZM107.554 28.5185V29.6893H106.384V28.5185H107.554ZM107.554 27.3478V28.5185H106.384V27.3478H107.554ZM105.213 27.3478V28.5185H104.042V27.3478H105.213ZM104.042 27.3478V28.5185H102.872V27.3478H104.042ZM104.042 28.5185V29.6893H102.872V28.5185H104.042ZM105.213 28.5185V29.6893H104.042V28.5185H105.213ZM105.213 29.6893V30.86H104.042V29.6893H105.213ZM104.042 29.6893V30.86H102.872V29.6893H104.042ZM102.872 30.86V32.0307H101.701V30.86H102.872ZM104.042 30.86V32.0307H102.872V30.86H104.042ZM105.213 30.86V32.0307H104.042V30.86H105.213ZM106.384 30.86V32.0307H105.213V30.86H106.384ZM107.554 30.86V32.0307H106.384V30.86H107.554ZM102.872 55.4454V56.6161H101.701V55.4454H102.872ZM102.872 54.2746V55.4454H101.701V54.2746H102.872ZM102.872 53.1039V54.2746H101.701V53.1039H102.872ZM102.872 51.9332V53.1039H101.701V51.9332H102.872ZM102.872 50.7624V51.9332H101.701V50.7624H102.872ZM102.872 49.5917V50.7624H101.701V49.5917H102.872ZM102.872 48.421V49.5917H101.701V48.421H102.872ZM102.872 47.2502V48.421H101.701V47.2502H102.872ZM102.872 46.0795V47.2502H101.701V46.0795H102.872ZM102.872 44.9088V46.0795H101.701V44.9088H102.872ZM102.872 43.738V44.9088H101.701V43.738H102.872ZM102.872 42.5673V43.738H101.701V42.5673H102.872ZM102.872 41.3966V42.5673H101.701V41.3966H102.872ZM102.872 40.2258V41.3966H101.701V40.2258H102.872ZM102.872 39.0551V40.2258H101.701V39.0551H102.872ZM104.042 39.0551V40.2258H102.872V39.0551H104.042ZM104.042 40.2258V41.3966H102.872V40.2258H104.042ZM104.042 41.3966V42.5673H102.872V41.3966H104.042ZM104.042 42.5673V43.738H102.872V42.5673H104.042ZM104.042 43.738V44.9088H102.872V43.738H104.042ZM104.042 44.9088V46.0795H102.872V44.9088H104.042ZM104.042 46.0795V47.2502H102.872V46.0795H104.042ZM105.213 47.2502V48.421H104.042V47.2502H105.213ZM105.213 48.421V49.5917H104.042V48.421H105.213ZM105.213 49.5917V50.7624H104.042V49.5917H105.213ZM105.213 50.7624V51.9332H104.042V50.7624H105.213ZM105.213 51.9332V53.1039H104.042V51.9332H105.213ZM105.213 53.1039V54.2746H104.042V53.1039H105.213ZM105.213 54.2746V55.4454H104.042V54.2746H105.213ZM105.213 55.4454V56.6161H104.042V55.4454H105.213ZM106.384 55.4454V56.6161H105.213V55.4454H106.384ZM107.554 55.4454V56.6161H106.384V55.4454H107.554ZM107.554 54.2746V55.4454H106.384V54.2746H107.554ZM107.554 53.1039V54.2746H106.384V53.1039H107.554ZM107.554 51.9332V53.1039H106.384V51.9332H107.554ZM107.554 50.7624V51.9332H106.384V50.7624H107.554ZM107.554 49.5917V50.7624H106.384V49.5917H107.554ZM107.554 48.421V49.5917H106.384V48.421H107.554ZM107.554 47.2502V48.421H106.384V47.2502H107.554ZM106.384 47.2502V48.421H105.213V47.2502H106.384ZM106.384 46.0795V47.2502H105.213V46.0795H106.384ZM106.384 48.421V49.5917H105.213V48.421H106.384ZM106.384 49.5917V50.7624H105.213V49.5917H106.384ZM106.384 50.7624V51.9332H105.213V50.7624H106.384ZM106.384 51.9332V53.1039H105.213V51.9332H106.384ZM106.384 53.1039V54.2746H105.213V53.1039H106.384ZM106.384 54.2746V55.4454H105.213V54.2746H106.384ZM104.042 55.4454V56.6161H102.872V55.4454H104.042ZM104.042 54.2746V55.4454H102.872V54.2746H104.042ZM104.042 53.1039V54.2746H102.872V53.1039H104.042ZM104.042 51.9332V53.1039H102.872V51.9332H104.042ZM104.042 50.7624V51.9332H102.872V50.7624H104.042ZM104.042 49.5917V50.7624H102.872V49.5917H104.042ZM104.042 48.421V49.5917H102.872V48.421H104.042ZM104.042 47.2502V48.421H102.872V47.2502H104.042ZM102.872 36.7137V37.8844H101.701V36.7137H102.872ZM102.872 37.8844V39.0551H101.701V37.8844H102.872ZM106.384 36.7137V37.8844H105.213V36.7137H106.384ZM106.384 37.8844V39.0551H105.213V37.8844H106.384ZM106.384 39.0551V40.2258H105.213V39.0551H106.384ZM106.384 40.2258V41.3966H105.213V40.2258H106.384ZM106.384 41.3966V42.5673H105.213V41.3966H106.384ZM106.384 42.5673V43.738H105.213V42.5673H106.384ZM107.554 43.738V44.9088H106.384V43.738H107.554ZM107.554 44.9088V46.0795H106.384V44.9088H107.554ZM107.554 46.0795V47.2502H106.384V46.0795H107.554ZM107.554 42.5673V43.738H106.384V42.5673H107.554ZM107.554 41.3966V42.5673H106.384V41.3966H107.554ZM107.554 40.2258V41.3966H106.384V40.2258H107.554ZM107.554 39.0551V40.2258H106.384V39.0551H107.554ZM107.554 37.8844V39.0551H106.384V37.8844H107.554ZM107.554 36.7137V37.8844H106.384V36.7137H107.554ZM104.042 36.7137V37.8844H102.872V36.7137H104.042ZM104.042 37.8844V39.0551H102.872V37.8844H104.042ZM105.213 36.7137V37.8844H104.042V36.7137H105.213ZM105.213 37.8844V39.0551H104.042V37.8844H105.213ZM105.213 39.0551V40.2258H104.042V39.0551H105.213ZM105.213 40.2258V41.3966H104.042V40.2258H105.213ZM105.213 41.3966V42.5673H104.042V41.3966H105.213ZM105.213 42.5673V43.738H104.042V42.5673H105.213ZM105.213 43.738V44.9088H104.042V43.738H105.213ZM105.213 44.9088V46.0795H104.042V44.9088H105.213ZM105.213 46.0795V47.2502H104.042V46.0795H105.213ZM106.384 44.9088V46.0795H105.213V44.9088H106.384ZM106.384 43.738V44.9088H105.213V43.738H106.384ZM106.384 35.5429V36.7137H105.213V35.5429H106.384ZM107.554 35.5429V36.7137H106.384V35.5429H107.554ZM105.213 35.5429V36.7137H104.042V35.5429H105.213ZM104.042 35.5429V36.7137H102.872V35.5429H104.042ZM102.872 35.5429V36.7137H101.701V35.5429H102.872Z" fill="black"/>
</svg>
